<?xml version="1.0" standalone="no"?>
<!DOCTYPE svg PUBLIC "-//W3C//DTD SVG 20010904//EN"
 "http://www.w3.org/TR/2001/REC-SVG-20010904/DTD/svg10.dtd">
<svg version="1.0" xmlns="http://www.w3.org/2000/svg"
 width="50.000000pt" height="50.000000pt" viewBox="0 0 500.000000 500.000000"
 preserveAspectRatio="xMidYMid meet">

<g transform="translate(0.000000,500.000000) scale(0.100000,-0.100000)"
fill="#000000" stroke="none">
<path d="M2025 3320 c-334 -50 -601 -276 -679 -577 -11 -41 -12 -55 -3 -59 7
-2 118 -3 246 -2 l234 3 7 25 c4 14 13 57 20 95 36 203 136 365 265 434 45 24
60 26 160 26 103 0 114 -2 177 -32 88 -41 160 -110 198 -187 28 -57 70 -219
70 -273 0 -16 6 -23 20 -23 19 0 20 7 20 108 0 60 3 184 7 275 6 165 6 167
-15 167 -17 0 -22 -8 -28 -47 -8 -54 -43 -96 -71 -86 -10 3 -39 21 -64 40 -67
48 -165 91 -245 108 -72 15 -233 18 -319 5z"/>
<path d="M2846 3283 c-5 -13 15 -23 50 -23 37 0 78 -25 94 -57 9 -20 15 -99
19 -273 l6 -245 215 0 214 0 7 25 c4 14 7 123 8 243 1 249 7 278 63 296 18 6
45 12 61 13 25 2 31 7 25 26 -5 13 -757 9 -762 -5z"/>
<path d="M1330 2520 c0 -56 2 -60 23 -60 34 0 67 28 67 56 0 44 -17 64 -55 64
l-35 0 0 -60z m68 38 c29 -29 2 -88 -39 -88 -16 0 -19 7 -19 50 0 46 2 50 23
50 13 0 28 -5 35 -12z"/>
<path d="M1480 2520 l0 -60 43 2 c36 1 38 2 10 5 -27 4 -33 9 -33 28 0 18 6
25 28 28 l27 4 -27 2 c-21 1 -28 6 -28 20 0 14 8 21 28 24 22 3 20 4 -10 6
l-38 1 0 -60z"/>
<path d="M1624 2565 c-8 -20 10 -41 41 -49 28 -7 33 -33 9 -43 -9 -3 -25 -1
-35 6 -11 6 -19 7 -19 2 0 -14 37 -23 60 -16 33 11 25 44 -16 61 -42 18 -40
40 5 38 17 -1 28 2 25 7 -9 15 -64 10 -70 -6z"/>
<path d="M1760 2520 l0 -60 43 2 c36 1 38 2 10 5 -27 4 -33 9 -33 28 0 18 6
25 28 28 l27 4 -27 2 c-21 1 -28 6 -28 20 0 14 8 21 28 24 22 3 20 4 -10 6
l-38 1 0 -60z"/>
<path d="M1902 2518 c1 -57 2 -58 5 -15 2 26 7 47 11 47 4 0 21 -21 37 -45 17
-25 33 -45 38 -45 4 0 6 28 5 63 l-1 62 -6 -50 -6 -50 -34 48 c-19 26 -38 47
-43 47 -4 0 -7 -28 -6 -62z"/>
<path d="M2060 2576 c0 -14 42 -116 48 -116 4 0 17 27 29 60 12 33 18 60 14
60 -5 0 -14 -20 -21 -45 -7 -25 -16 -48 -20 -50 -4 -3 -13 16 -20 40 -7 25
-17 48 -21 51 -5 3 -9 3 -9 0z"/>
<path d="M2226 2564 c-33 -33 -6 -104 39 -104 27 0 55 34 55 67 0 28 -25 53
-55 53 -13 0 -31 -7 -39 -16z m78 -26 c8 -22 6 -32 -9 -48 -24 -27 -41 -25
-61 5 -14 21 -15 31 -5 51 16 35 62 30 75 -8z"/>
<path d="M2382 2523 l-2 -63 38 1 c36 1 36 2 7 8 -28 6 -30 10 -36 61 l-6 55
-1 -62z"/>
<path d="M2511 2575 c-2 -20 36 -106 45 -105 11 2 46 89 41 104 -2 6 -12 -14
-22 -44 l-18 -55 -14 35 c-22 56 -32 76 -32 65z"/>
<path d="M2660 2520 c0 -33 4 -60 10 -60 6 0 10 27 10 60 0 33 -4 60 -10 60
-6 0 -10 -27 -10 -60z"/>
<path d="M2740 2518 c0 -80 6 -75 20 17 1 6 11 -10 22 -35 l20 -45 24 49 23
50 4 -50 c3 -47 3 -46 5 14 1 34 -2 62 -6 62 -4 0 -17 -24 -27 -52 l-19 -53
-24 53 c-13 28 -28 52 -33 52 -5 0 -9 -28 -9 -62z"/>
<path d="M2930 2520 l0 -60 43 2 c36 1 38 2 10 5 -27 4 -33 9 -33 28 0 18 6
25 28 28 l27 4 -27 2 c-21 1 -28 6 -28 20 0 14 8 21 28 24 22 3 20 4 -10 6
l-38 1 0 -60z"/>
<path d="M3072 2518 c1 -57 2 -58 5 -15 2 26 7 47 11 47 4 0 21 -20 37 -45 17
-24 33 -45 38 -45 4 0 6 28 5 63 -1 56 -2 57 -5 15 -2 -27 -7 -48 -11 -48 -4
0 -20 20 -35 45 -16 25 -33 45 -38 45 -5 0 -8 -28 -7 -62z"/>
<path d="M3247 2573 c19 -4 23 -12 26 -61 l3 -57 2 57 c2 50 5 57 25 61 12 2
0 4 -28 4 -27 0 -40 -2 -28 -4z"/>
<path d="M3392 2568 c-17 -17 -15 -74 4 -92 35 -35 84 -7 84 48 0 39 -15 56
-50 56 -14 0 -31 -5 -38 -12z m67 -12 c31 -37 -9 -103 -46 -80 -37 23 -24 94
17 94 10 0 23 -6 29 -14z"/>
<path d="M1320 2323 c0 -39 49 -195 82 -262 32 -68 57 -101 122 -165 92 -91
143 -123 274 -165 185 -61 405 -67 562 -16 47 15 117 42 157 61 179 82 217 78
244 -23 6 -24 17 -43 24 -43 11 0 14 60 18 283 3 155 8 294 12 310 l7 27 -272
0 -272 0 30 -35 c42 -47 47 -80 47 -305 0 -172 -2 -198 -18 -222 -27 -39 -76
-58 -149 -58 -115 0 -204 63 -268 190 -38 76 -78 223 -86 315 -3 39 -7 80 -10
93 l-4 22 -250 0 c-138 0 -250 -3 -250 -7z"/>
<path d="M3007 1983 c-4 -307 -8 -357 -26 -425 -35 -135 -78 -189 -176 -224
-35 -12 -60 -27 -60 -35 0 -21 151 -12 264 17 239 60 385 201 425 410 17 94
32 443 22 537 l-8 67 -217 0 -218 0 -6 -347z"/>
</g>
</svg>
